# xmcd
#
# Track frame offsets:
#	150
#	18717
#	39330
#	64985
#	86390
#	108895
#	130677
#	154980
#	172390
#	193242
#	212565
#	232110
#	256455
#	277612
#	311105
#
# Disc length: 4434
#
# Revision: 1
# Processed by: cddbd v1.5.1PL0 Copyright (c) Steve Scherf et al.
# Submitted via: FCDBAsst 2.0
# Normalized: r0:DSETVAR1
#
DISCID=d611500f
DTITLE=Various Artist - Pure Soul II - 30 More Awesome Soul Gems
DYEAR=1900
DGENRE=
TTITLE0=Jaki Graham - Rhythm of Life
TTITLE1=Velma - Strip It Down
TTITLE2=Keni Burke - This Dedication
TTITLE3=Jaki Graham - Walk On Water
TTITLE4=Wanda - It's Time
TTITLE5=Howard Hewett - Crystal Clear
TTITLE6=Angela Bofill - Galaxy of Love
TTITLE7=Act of Faith - Pleasure
TTITLE8=Jean Carne - Falling For You
TTITLE9=Richard Rogers - Keep Giving Me Love
TTITLE10=Dawn Zee - Can't Run
TTITLE11=Billy Valentine - Didn't Mean To Hurt You
TTITLE12=Candy J - Shoo Be Doo
TTITLE13=Woody Cunningham - Animal
TTITLE14=Rebbie Jackson - Hey Boy
EXTD=
EXTT0=
EXTT1=
EXTT2=
EXTT3=
EXTT4=
EXTT5=
EXTT6=
EXTT7=
EXTT8=
EXTT9=
EXTT10=
EXTT11=
EXTT12=
EXTT13=
EXTT14=
PLAYORDER=
